<svg width="328" height="199" viewBox="0 0 328 199" fill="none" xmlns="http://www.w3.org/2000/svg">
<rect x="3" y="3" width="322" height="193" fill="#58893D"/>
<rect x="3" y="3" width="322" height="193" stroke="#222816" stroke-width="6"/>
<path d="M79.625 83.0156C79.625 83.7448 79.3646 84.3438 78.8438 84.8125C78.375 85.3333 77.8021 85.5938 77.125 85.5938C76.4479 85.5938 75.849 85.3333 75.3281 84.8125C74.8073 84.3438 74.5469 83.7448 74.5469 83.0156V69.4219H70.875C70.1458 69.4219 69.5729 69.2135 69.1562 68.7969C68.7396 68.3802 68.5312 67.8333 68.5312 67.1562C68.5312 66.4271 68.7396 65.8542 69.1562 65.4375C69.5729 65.0208 70.1458 64.8125 70.875 64.8125H74.5469V52.3125C74.5469 51.5833 74.8073 50.9844 75.3281 50.5156C75.849 50.0469 76.4479 49.8125 77.125 49.8125C77.8021 49.8125 78.375 50.0469 78.8438 50.5156C79.3646 50.9844 79.625 51.5833 79.625 52.3125V83.0156ZM67.9062 67.9375C67.9062 74.2396 66.8906 78.6927 64.8594 81.2969C62.8281 83.901 60.3281 85.2031 57.3594 85.2031C54.3906 85.2031 51.8906 83.901 49.8594 81.2969C47.8281 78.6927 46.8125 74.2396 46.8125 67.9375C46.8125 61.5833 47.8281 57.1042 49.8594 54.5C51.8906 51.8958 54.3906 50.5938 57.3594 50.5938C60.3281 50.5938 62.8281 51.8958 64.8594 54.5C66.8906 57.1042 67.9062 61.5833 67.9062 67.9375ZM62.75 67.9375C62.75 63.4583 62.2292 60.2292 61.1875 58.25C60.1979 56.2708 58.9219 55.2812 57.3594 55.2812C55.849 55.2812 54.5469 56.2708 53.4531 58.25C52.4115 60.2292 51.8906 63.4583 51.8906 67.9375C51.8906 72.3646 52.4115 75.5677 53.4531 77.5469C54.5469 79.526 55.849 80.5156 57.3594 80.5156C58.9219 80.5156 60.1979 79.526 61.1875 77.5469C62.2292 75.5677 62.75 72.3646 62.75 67.9375ZM119.625 83.0156C119.625 83.7448 119.365 84.3438 118.844 84.8125C118.375 85.3333 117.802 85.5938 117.125 85.5938C116.448 85.5938 115.849 85.3333 115.328 84.8125C114.807 84.3438 114.547 83.7448 114.547 83.0156V68.6406H106.734C106.057 68.6406 105.51 68.4323 105.094 68.0156C104.677 67.5469 104.469 66.974 104.469 66.2969C104.469 65.6198 104.677 65.0729 105.094 64.6562C105.51 64.1875 106.057 63.9531 106.734 63.9531H114.547V52.3125C114.547 51.5833 114.807 50.9844 115.328 50.5156C115.849 50.0469 116.448 49.8125 117.125 49.8125C117.802 49.8125 118.375 50.0469 118.844 50.5156C119.365 50.9844 119.625 51.5833 119.625 52.3125V83.0156ZM109.938 82.3906C109.938 82.7552 109.885 83.0677 109.781 83.3281C109.677 83.6406 109.495 83.901 109.234 84.1094C109.026 84.3177 108.766 84.5 108.453 84.6562C108.193 84.8125 107.88 84.8906 107.516 84.8906C107.151 84.8906 106.812 84.7865 106.5 84.5781C106.188 84.4219 105.823 84.2396 105.406 84.0312C103.948 82.6771 102.49 80.9062 101.031 78.7188C99.625 76.4792 98.4271 74.1094 97.4375 71.6094C96.4479 74.1094 95.3021 76.3229 94 78.25C92.75 80.1771 91.4479 81.8958 90.0938 83.4062C89.7292 83.7708 89.3385 84.0573 88.9219 84.2656C88.5052 84.474 88.0885 84.5781 87.6719 84.5781C87.4115 84.5781 87.125 84.526 86.8125 84.4219C86.5521 84.3177 86.2917 84.1875 86.0312 84.0312C85.7708 83.7708 85.5625 83.4844 85.4062 83.1719C85.3021 82.8594 85.25 82.5208 85.25 82.1562C85.25 81.7917 85.3021 81.4531 85.4062 81.1406C85.5104 80.776 85.6667 80.4896 85.875 80.2812C88.375 77.8333 90.5104 74.6302 92.2812 70.6719C94.0521 66.6615 94.9375 62.7292 94.9375 58.875V52.8594C94.9375 52.1302 95.1719 51.5312 95.6406 51.0625C96.1615 50.5417 96.7604 50.2812 97.4375 50.2812C98.1667 50.2812 98.7656 50.5417 99.2344 51.0625C99.7552 51.5312 100.016 52.1302 100.016 52.8594V59.5C100.016 62.3646 100.719 65.8281 102.125 69.8906C103.583 73.901 105.901 77.4167 109.078 80.4375C109.339 80.6458 109.547 80.9323 109.703 81.2969C109.859 81.6615 109.938 82.026 109.938 82.3906ZM160.875 60.8281C160.875 63.7969 159.599 66.1927 157.047 68.0156C154.495 69.7865 150.146 70.6719 144 70.6719C137.854 70.6719 133.453 69.7865 130.797 68.0156C128.193 66.1927 126.891 63.7969 126.891 60.8281C126.891 57.8073 128.193 55.4375 130.797 53.7188C133.453 51.9479 137.854 51.0625 144 51.0625C150.146 51.0625 154.495 51.9479 157.047 53.7188C159.599 55.4375 160.875 57.8073 160.875 60.8281ZM161.734 82.1562C161.734 82.8333 161.526 83.3802 161.109 83.7969C160.745 84.2656 160.198 84.5 159.469 84.5H128.297C127.62 84.5 127.047 84.2656 126.578 83.7969C126.161 83.3802 125.953 82.8333 125.953 82.1562C125.953 81.4792 126.161 80.9323 126.578 80.5156C127.047 80.099 127.62 79.8906 128.297 79.8906H141.344V74.9688C141.344 74.2396 141.604 73.6406 142.125 73.1719C142.646 72.7031 143.245 72.4688 143.922 72.4688C144.599 72.4688 145.172 72.7031 145.641 73.1719C146.161 73.6406 146.422 74.2396 146.422 74.9688V79.8906H159.469C160.198 79.8906 160.745 80.099 161.109 80.5156C161.526 80.9323 161.734 81.4792 161.734 82.1562ZM155.719 60.8281C155.719 59.1615 154.781 57.9115 152.906 57.0781C151.031 56.1927 148.01 55.75 143.844 55.75C139.677 55.75 136.656 56.1927 134.781 57.0781C132.906 57.9115 131.969 59.1615 131.969 60.8281C131.969 62.4427 132.906 63.7188 134.781 64.6562C136.708 65.5417 139.781 65.9844 144 65.9844C148.167 65.9844 151.161 65.5417 152.984 64.6562C154.807 63.7188 155.719 62.4427 155.719 60.8281ZM199.625 65.8281C199.625 66.5573 199.365 67.1823 198.844 67.7031C198.375 68.1719 197.802 68.4062 197.125 68.4062C196.448 68.4062 195.849 68.1719 195.328 67.7031C194.807 67.1823 194.547 66.5573 194.547 65.8281V52.3125C194.547 51.5833 194.807 50.9844 195.328 50.5156C195.849 50.0469 196.448 49.8125 197.125 49.8125C197.802 49.8125 198.375 50.0469 198.844 50.5156C199.365 50.9844 199.625 51.5833 199.625 52.3125V65.8281ZM188.609 65.9062C188.609 66.1667 188.531 66.4531 188.375 66.7656C188.271 67.026 188.167 67.2604 188.062 67.4688C187.802 67.7292 187.516 67.9635 187.203 68.1719C186.891 68.3281 186.552 68.4062 186.188 68.4062C185.875 68.4062 185.562 68.3542 185.25 68.25C184.938 68.1458 184.651 67.9896 184.391 67.7812C183.245 67.0521 182.047 66.0104 180.797 64.6562C179.599 63.3021 178.557 61.8438 177.672 60.2812C176.839 61.6875 175.849 63.0156 174.703 64.2656C173.557 65.5156 172.307 66.6615 170.953 67.7031C170.589 67.9635 170.224 68.1458 169.859 68.25C169.547 68.3542 169.26 68.4062 169 68.4062C168.531 68.4062 168.115 68.3021 167.75 68.0938C167.438 67.8333 167.151 67.5208 166.891 67.1562C166.786 67 166.682 66.8177 166.578 66.6094C166.526 66.349 166.5 66.0885 166.5 65.8281C166.5 65.4115 166.578 64.9948 166.734 64.5781C166.943 64.1615 167.229 63.849 167.594 63.6406C169.156 62.5469 170.667 61.0365 172.125 59.1094C173.635 57.1823 174.599 55.151 175.016 53.0156C175.12 52.2865 175.406 51.6875 175.875 51.2188C176.344 50.6979 176.943 50.4375 177.672 50.4375C178.401 50.4375 178.974 50.6719 179.391 51.1406C179.859 51.6094 180.198 52.2083 180.406 52.9375C180.823 55.0208 181.682 57 182.984 58.875C184.286 60.75 185.849 62.3906 187.672 63.7969C187.984 64.0573 188.219 64.3698 188.375 64.7344C188.531 65.099 188.609 65.4896 188.609 65.9062ZM199.625 80.5938C199.625 81.8958 199.26 82.8594 198.531 83.4844C197.854 84.1615 196.786 84.5 195.328 84.5H172.359C170.901 84.5 169.807 84.1615 169.078 83.4844C168.349 82.8594 167.984 81.8958 167.984 80.5938V71.8438C167.984 71.1146 168.245 70.5156 168.766 70.0469C169.286 69.526 169.885 69.2656 170.562 69.2656C171.24 69.2656 171.839 69.526 172.359 70.0469C172.88 70.5156 173.141 71.1146 173.141 71.8438V72.5469H194.547V71.5312C194.547 70.8021 194.807 70.2031 195.328 69.7344C195.849 69.2656 196.448 69.0312 197.125 69.0312C197.802 69.0312 198.375 69.2656 198.844 69.7344C199.365 70.2031 199.625 70.8021 199.625 71.5312V80.5938ZM194.547 79.7344V77.1562H173.141V79.7344C173.141 79.7865 173.167 79.8385 173.219 79.8906C173.271 79.8906 173.323 79.8906 173.375 79.8906H194.234C194.339 79.8906 194.417 79.8906 194.469 79.8906C194.521 79.8385 194.547 79.7865 194.547 79.7344ZM239.625 83.0156C239.625 83.7448 239.365 84.3438 238.844 84.8125C238.375 85.3333 237.802 85.5938 237.125 85.5938C236.448 85.5938 235.849 85.3333 235.328 84.8125C234.807 84.3438 234.547 83.7448 234.547 83.0156V52.3125C234.547 51.5833 234.807 50.9844 235.328 50.5156C235.849 50.0469 236.448 49.8125 237.125 49.8125C237.802 49.8125 238.375 50.0469 238.844 50.5156C239.365 50.9844 239.625 51.5833 239.625 52.3125V83.0156ZM229.625 82.1562C229.625 82.5208 229.547 82.8594 229.391 83.1719C229.286 83.4844 229.104 83.7448 228.844 83.9531C228.531 84.1615 228.219 84.3177 227.906 84.4219C227.646 84.5781 227.359 84.6562 227.047 84.6562C226.682 84.6562 226.292 84.5521 225.875 84.3438C225.458 84.1354 225.094 83.875 224.781 83.5625C223.688 82.2083 222.49 80.5156 221.188 78.4844C219.938 76.401 218.766 74.0573 217.672 71.4531C216.37 74.474 215.042 77.026 213.688 79.1094C212.333 81.1927 210.979 82.8333 209.625 84.0312C209.469 84.2396 209.208 84.3958 208.844 84.5C208.479 84.6562 208.089 84.7344 207.672 84.7344C207.464 84.7344 207.229 84.6823 206.969 84.5781C206.708 84.474 206.448 84.3438 206.188 84.1875C205.875 83.9271 205.641 83.6406 205.484 83.3281C205.38 83.0156 205.328 82.6771 205.328 82.3125C205.328 81.9479 205.406 81.6094 205.562 81.2969C205.719 80.9844 205.927 80.6719 206.188 80.3594C208.479 78.0677 210.536 74.8906 212.359 70.8281C214.182 66.7656 215.094 62.8333 215.094 59.0312V53.3281C215.094 52.599 215.354 52 215.875 51.5312C216.396 51.0104 216.995 50.75 217.672 50.75C218.349 50.75 218.948 51.0104 219.469 51.5312C219.99 52 220.25 52.599 220.25 53.3281V59.8125C220.25 63.1979 221.109 66.7917 222.828 70.5938C224.547 74.3438 226.552 77.5469 228.844 80.2031C229.156 80.5677 229.365 80.9323 229.469 81.2969C229.573 81.6094 229.625 81.8958 229.625 82.1562ZM280.875 60.8281C280.875 63.7969 279.599 66.1927 277.047 68.0156C274.495 69.7865 270.146 70.6719 264 70.6719C257.854 70.6719 253.453 69.7865 250.797 68.0156C248.193 66.1927 246.891 63.7969 246.891 60.8281C246.891 57.8073 248.193 55.4375 250.797 53.7188C253.453 51.9479 257.854 51.0625 264 51.0625C270.146 51.0625 274.495 51.9479 277.047 53.7188C279.599 55.4375 280.875 57.8073 280.875 60.8281ZM281.734 82.1562C281.734 82.8333 281.526 83.3802 281.109 83.7969C280.745 84.2656 280.198 84.5 279.469 84.5H248.297C247.62 84.5 247.047 84.2656 246.578 83.7969C246.161 83.3802 245.953 82.8333 245.953 82.1562C245.953 81.4792 246.161 80.9323 246.578 80.5156C247.047 80.099 247.62 79.8906 248.297 79.8906H261.344V74.9688C261.344 74.2396 261.604 73.6406 262.125 73.1719C262.646 72.7031 263.245 72.4688 263.922 72.4688C264.599 72.4688 265.172 72.7031 265.641 73.1719C266.161 73.6406 266.422 74.2396 266.422 74.9688V79.8906H279.469C280.198 79.8906 280.745 80.099 281.109 80.5156C281.526 80.9323 281.734 81.4792 281.734 82.1562ZM275.719 60.8281C275.719 59.1615 274.781 57.9115 272.906 57.0781C271.031 56.1927 268.01 55.75 263.844 55.75C259.677 55.75 256.656 56.1927 254.781 57.0781C252.906 57.9115 251.969 59.1615 251.969 60.8281C251.969 62.4427 252.906 63.7188 254.781 64.6562C256.708 65.5417 259.781 65.9844 264 65.9844C268.167 65.9844 271.161 65.5417 272.984 64.6562C274.807 63.7188 275.719 62.4427 275.719 60.8281Z" fill="#2B321C"/>
<line x1="3" y1="131" x2="324" y2="131" stroke="#222816" stroke-width="6"/>
<line x1="3" y1="147" x2="324" y2="147" stroke="#222816" stroke-width="6"/>
<line x1="3" y1="167" x2="324" y2="167" stroke="#222816" stroke-width="12"/>
</svg>
